# xmcd
#
# Track frame offsets:
#	150
#	14786
#	27014
#	48710
#	61871
#	79043
#	96817
#	100687
#	113104
#	131477
#	147163
#	157637
#
# Disc length: 3604 seconds
#
# Revision: 1
# Processed by: cddbd v1.5.1PL2 Copyright (c) Steve Scherf et al.
# Submitted via: audiograbber 1.83.01
#
DISCID=900e120c
DTITLE=Soledad Brothers - The Hardest Walk
DYEAR=2006
DGENRE=Blues
TTITLE0=Truth or Consequences
TTITLE1=Downtown Paranoia Blues
TTITLE2=Crying Out Loud (Tears of Joy)
TTITLE3=Crooked Crown
TTITLE4=Sweet and Easy
TTITLE5=Dark Horse
TTITLE6=White Jazz
TTITLE7=Good Feeling
TTITLE8=Let Me Down
TTITLE9=Mean Ol' Toledo
TTITLE10=Loup Garou
TTITLE11=True To Zou Zou
EXTD=
EXTT0=
EXTT1=
EXTT2=
EXTT3=
EXTT4=
EXTT5=
EXTT6=
EXTT7=
EXTT8=
EXTT9=
EXTT10=
EXTT11=
PLAYORDER=
